<svg 
 xmlns="http://www.w3.org/2000/svg"
 xmlns:xlink="http://www.w3.org/1999/xlink"
 width="13px" height="30px">
<path fill-rule="evenodd"  fill="rgb(145, 158, 177)"
 d="M12.568,22.821 L11.861,22.114 C11.812,22.065 11.733,22.065 11.685,22.114 L7.124,26.675 L7.124,1.104 C7.124,1.036 7.068,0.980 6.999,0.980 L6.000,0.980 C5.931,0.980 5.875,1.036 5.875,1.104 L5.875,26.685 L1.314,22.124 C1.265,22.075 1.186,22.075 1.138,22.124 L0.432,22.831 C0.383,22.879 0.383,22.959 0.432,23.007 L6.406,28.983 C6.455,29.032 6.535,29.032 6.584,28.983 L7.290,28.276 L7.290,28.275 L12.568,22.998 C12.617,22.949 12.617,22.870 12.568,22.821 Z"/>
</svg>