<svg 
 xmlns="http://www.w3.org/2000/svg"
 xmlns:xlink="http://www.w3.org/1999/xlink"
 width="60px" height="61px">
<path fill-rule="evenodd"  fill="rgb(0, 0, 0)"
 d="M32.262,22.162 L29.674,22.162 C28.436,22.162 27.431,23.168 27.431,24.406 L27.431,25.725 C25.936,25.943 24.784,27.232 24.784,28.787 C24.784,29.035 24.985,29.235 25.232,29.235 L30.526,29.235 C30.774,29.235 30.975,29.035 30.975,28.787 C30.975,27.232 29.823,25.943 28.328,25.725 L28.328,24.406 C28.328,23.663 28.933,23.060 29.674,23.060 L32.262,23.060 C33.003,23.060 33.607,23.663 33.607,24.406 L33.607,33.199 C33.607,33.447 33.808,33.648 34.056,33.648 C34.304,33.648 34.505,33.447 34.505,33.199 L34.505,24.406 C34.505,23.168 33.498,22.162 32.262,22.162 ZM30.032,28.338 L25.727,28.338 C25.934,27.341 26.821,26.589 27.880,26.589 C28.938,26.589 29.825,27.341 30.032,28.338 ZM28.328,30.331 L28.328,31.004 C28.328,31.252 28.128,31.453 27.880,31.453 C27.632,31.453 27.431,31.252 27.431,31.004 L27.431,30.331 C27.431,30.084 27.632,29.883 27.880,29.883 C28.128,29.883 28.328,30.084 28.328,30.331 ZM28.323,32.526 L28.323,33.199 C28.323,33.447 28.122,33.648 27.874,33.648 C27.626,33.648 27.426,33.447 27.426,33.199 L27.426,32.526 C27.426,32.279 27.626,32.077 27.874,32.077 C28.122,32.077 28.323,32.279 28.323,32.526 ZM26.566,30.331 L26.566,31.004 C26.566,31.252 26.365,31.453 26.118,31.453 C25.870,31.453 25.669,31.252 25.669,31.004 L25.669,30.331 C25.669,30.084 25.870,29.883 26.118,29.883 C26.365,29.883 26.566,30.084 26.566,30.331 ZM26.561,32.526 L26.561,33.199 C26.561,33.447 26.360,33.648 26.112,33.648 C25.864,33.648 25.663,33.447 25.663,33.199 L25.663,32.526 C25.663,32.279 25.864,32.077 26.112,32.077 C26.360,32.077 26.561,32.279 26.561,32.526 ZM30.085,30.331 L30.085,31.004 C30.085,31.252 29.884,31.453 29.637,31.453 C29.389,31.453 29.187,31.252 29.187,31.004 L29.187,30.331 C29.187,30.084 29.389,29.883 29.637,29.883 C29.884,29.883 30.085,30.084 30.085,30.331 ZM30.079,32.526 L30.079,33.199 C30.079,33.447 29.878,33.648 29.632,33.648 C29.384,33.648 29.183,33.447 29.183,33.199 L29.183,32.526 C29.183,32.279 29.384,32.077 29.632,32.077 C29.878,32.077 30.079,32.279 30.079,32.526 Z"/>
</svg>