<svg 
 xmlns="http://www.w3.org/2000/svg"
 xmlns:xlink="http://www.w3.org/1999/xlink"
 width="67px" height="61px">
<path fill-rule="evenodd"  fill="rgb(15, 15, 15)"
 d="M39.768,26.723 L39.768,26.706 L39.768,23.991 C39.768,22.768 38.906,22.320 38.096,22.320 L27.849,22.320 C27.040,22.320 26.178,22.750 26.178,23.991 L26.178,26.706 L26.178,26.723 C25.369,26.813 24.595,27.353 24.595,28.593 L24.595,30.714 C24.595,31.074 24.884,31.361 25.244,31.361 L25.458,31.361 L25.458,33.033 C25.458,33.392 25.747,33.680 26.106,33.680 L26.717,33.680 C27.077,33.680 27.365,33.392 27.365,33.033 L27.365,31.343 L38.636,31.343 L38.636,33.033 C38.636,33.392 38.923,33.680 39.283,33.680 L39.894,33.680 C40.253,33.680 40.540,33.392 40.540,33.033 L40.540,31.343 L40.757,31.343 C41.117,31.343 41.404,31.056 41.404,30.696 L41.404,28.593 C41.349,27.353 40.578,26.813 39.768,26.723 ZM26.789,23.991 L26.825,23.991 C26.825,23.146 27.382,22.966 27.849,22.966 L38.096,22.966 C38.564,22.966 39.121,23.146 39.121,23.991 L39.121,26.706 L38.636,26.706 L38.636,25.160 C38.636,24.800 38.347,24.512 37.988,24.512 L34.034,24.512 C33.673,24.512 33.386,24.800 33.386,25.160 L33.386,26.706 L32.631,26.706 L32.631,25.160 C32.631,24.800 32.343,24.512 31.984,24.512 L28.029,24.512 C27.669,24.512 27.382,24.800 27.382,25.160 L27.382,26.706 L26.789,26.706 L26.789,23.991 ZM37.988,25.160 L37.988,26.706 L34.034,26.706 L34.034,25.160 L37.988,25.160 L37.988,25.160 ZM32.021,25.160 L32.021,26.706 L28.066,26.706 L28.066,25.160 L32.021,25.160 L32.021,25.160 ZM26.699,33.033 L26.087,33.033 L26.087,31.343 L26.699,31.343 L26.699,33.033 L26.699,33.033 ZM39.858,33.033 L39.247,33.033 L39.247,31.343 L39.858,31.343 L39.858,33.033 ZM40.703,30.714 L39.858,30.714 L39.247,30.714 L26.699,30.714 L26.087,30.714 L25.225,30.714 L25.225,29.761 L40.703,29.761 L40.703,30.714 ZM40.703,29.114 L25.225,29.114 L25.225,28.593 C25.225,27.514 26.016,27.353 26.465,27.353 L26.807,27.353 L28.047,27.353 L32.001,27.353 L34.034,27.353 L37.988,27.353 L39.121,27.353 L39.462,27.353 C39.930,27.353 40.703,27.514 40.703,28.593 L40.703,29.114 L40.703,29.114 Z"/>
</svg>