<svg 
 xmlns="http://www.w3.org/2000/svg"
 xmlns:xlink="http://www.w3.org/1999/xlink"
 width="66px" height="66px">
<path fill-rule="evenodd"  fill="rgb(31, 55, 61)"
 d="M40.444,29.204 C40.340,28.692 40.185,28.190 39.980,27.710 C39.781,27.238 39.535,26.784 39.248,26.360 C38.965,25.939 38.639,25.545 38.279,25.186 C37.919,24.826 37.525,24.499 37.103,24.217 C36.680,23.929 36.226,23.681 35.754,23.481 C35.275,23.280 34.771,23.124 34.261,23.020 C33.738,22.912 33.199,22.857 32.661,22.857 C32.123,22.857 31.586,22.912 31.060,23.020 C30.552,23.124 30.048,23.280 29.568,23.481 C29.097,23.681 28.643,23.929 28.219,24.217 C27.799,24.499 27.402,24.826 27.042,25.186 C26.684,25.545 26.357,25.939 26.073,26.360 C25.787,26.784 25.539,27.238 25.342,27.710 C25.139,28.190 24.981,28.692 24.877,29.204 C24.771,29.726 24.716,30.265 24.716,30.803 C24.716,31.342 24.771,31.881 24.877,32.402 C24.981,32.913 25.139,33.416 25.342,33.895 C25.539,34.367 25.787,34.821 26.073,35.247 C26.357,35.666 26.684,36.062 27.042,36.421 C27.402,36.781 27.799,37.106 28.219,37.388 C28.643,37.676 29.097,37.924 29.568,38.124 C30.048,38.326 30.552,38.481 31.060,38.585 C31.586,38.695 32.123,38.748 32.661,38.748 C33.199,38.748 33.738,38.695 34.261,38.585 C34.771,38.481 35.275,38.326 35.754,38.124 C36.226,37.924 36.680,37.676 37.103,37.388 C37.525,37.106 37.919,36.781 38.279,36.421 C38.639,36.062 38.965,35.666 39.248,35.247 C39.535,34.821 39.781,34.367 39.980,33.895 C40.185,33.416 40.340,32.913 40.444,32.402 C40.553,31.881 40.605,31.342 40.605,30.803 C40.605,30.265 40.553,29.726 40.444,29.204 ZM39.443,30.734 C39.345,30.714 37.049,30.219 34.719,30.513 C34.671,30.396 34.621,30.279 34.572,30.163 C34.430,29.831 34.278,29.502 34.121,29.179 C36.801,28.085 37.887,26.512 37.901,26.492 C38.852,27.648 39.428,29.126 39.443,30.734 ZM37.143,25.711 C37.125,25.738 36.158,27.208 33.598,28.168 C32.438,26.036 31.164,24.344 31.062,24.209 C31.576,24.086 32.110,24.018 32.661,24.018 C34.379,24.018 35.947,24.658 37.143,25.711 ZM31.035,24.215 L31.035,24.217 C31.035,24.217 31.026,24.218 31.015,24.220 C31.015,24.220 31.028,24.218 31.035,24.215 ZM29.766,24.667 C29.855,24.787 31.111,26.489 32.285,28.576 C29.027,29.442 26.201,29.407 26.021,29.404 C26.462,27.304 27.874,25.561 29.766,24.667 ZM25.875,30.803 C25.875,30.730 25.879,30.659 25.881,30.588 C26.001,30.591 29.355,30.667 32.848,29.622 C33.041,30.002 33.228,30.389 33.398,30.776 C33.309,30.799 33.220,30.828 33.130,30.855 C29.468,32.038 27.612,35.334 27.612,35.334 L27.614,35.337 C26.535,34.134 25.875,32.545 25.875,30.803 ZM32.661,37.589 C31.020,37.589 29.512,37.004 28.339,36.034 C28.428,36.106 28.490,36.152 28.490,36.152 C28.490,36.152 29.791,33.315 33.815,31.913 C33.831,31.907 33.846,31.901 33.859,31.900 C34.815,34.380 35.210,36.458 35.309,37.052 C34.496,37.396 33.602,37.589 32.661,37.589 ZM36.452,36.429 C36.383,36.021 36.021,34.030 35.132,31.584 C37.321,31.234 39.220,31.835 39.361,31.881 C39.059,33.771 37.976,35.403 36.452,36.429 Z"/>
</svg>