<svg 
 xmlns="http://www.w3.org/2000/svg"
 xmlns:xlink="http://www.w3.org/1999/xlink"
 width="20px" height="27px">
<path fill-rule="evenodd"  fill="rgb(255, 255, 255)"
 d="M10.270,0.287 C4.993,0.287 0.699,4.581 0.699,9.859 C0.699,11.236 0.981,12.551 1.536,13.766 C3.930,19.003 8.517,24.532 9.868,26.102 C9.969,26.218 10.116,26.287 10.271,26.287 C10.427,26.287 10.574,26.218 10.675,26.102 C12.024,24.532 16.612,19.004 19.007,13.766 C19.561,12.551 19.843,11.236 19.843,9.859 C19.843,4.581 15.550,0.287 10.270,0.287 ZM10.270,14.831 C7.529,14.831 5.300,12.601 5.300,9.859 C5.300,7.118 7.529,4.886 10.270,4.886 C13.013,4.886 15.243,7.118 15.243,9.859 C15.243,12.601 13.013,14.831 10.270,14.831 Z"/>
</svg>