<svg 
 xmlns="http://www.w3.org/2000/svg"
 xmlns:xlink="http://www.w3.org/1999/xlink"
 width="25px" height="25px">
<path fill-rule="evenodd"  fill="rgb(255, 255, 255)"
 d="M24.365,19.712 L20.527,15.874 C19.763,15.113 18.498,15.137 17.707,15.928 L15.775,17.860 C15.652,17.793 15.526,17.723 15.393,17.648 C14.172,16.972 12.501,16.045 10.744,14.286 C8.981,12.523 8.052,10.850 7.374,9.628 C7.302,9.499 7.234,9.374 7.166,9.255 L8.464,7.960 L9.101,7.322 C9.894,6.529 9.915,5.264 9.153,4.501 L5.316,0.664 C4.554,-0.099 3.288,-0.076 2.496,0.716 L1.415,1.803 L1.444,1.833 C1.082,2.296 0.779,2.829 0.553,3.405 C0.345,3.952 0.216,4.475 0.157,4.999 C-0.350,9.198 1.570,13.037 6.778,18.245 C13.978,25.444 19.779,24.901 20.030,24.874 C20.575,24.809 21.097,24.679 21.628,24.473 C22.199,24.250 22.732,23.947 23.195,23.585 L23.218,23.607 L24.314,22.534 C25.103,21.741 25.126,20.476 24.365,19.712 Z"/>
</svg>