<svg 
 xmlns="http://www.w3.org/2000/svg"
 xmlns:xlink="http://www.w3.org/1999/xlink"
 width="30px" height="13px">
<path fill-rule="evenodd"  fill="rgb(31, 55, 61)"
 d="M22.821,0.431 L22.115,1.138 C22.066,1.187 22.066,1.266 22.115,1.315 L26.675,5.876 L1.105,5.876 C1.036,5.876 0.980,5.931 0.980,6.001 L0.980,7.000 C0.980,7.069 1.036,7.125 1.105,7.125 L26.685,7.125 L22.124,11.685 C22.076,11.734 22.076,11.813 22.124,11.862 L22.831,12.568 C22.880,12.617 22.959,12.617 23.008,12.568 L28.983,6.593 C29.032,6.545 29.032,6.465 28.983,6.416 L28.277,5.710 L28.275,5.710 L22.998,0.431 C22.949,0.383 22.870,0.383 22.821,0.431 Z"/>
</svg>