<svg 
 xmlns="http://www.w3.org/2000/svg"
 xmlns:xlink="http://www.w3.org/1999/xlink"
 width="16px" height="15px">
<path fill-rule="evenodd"  fill="rgb(145, 158, 177)"
 d="M15.547,13.885 L11.979,10.317 C12.706,9.287 13.136,8.033 13.136,6.676 C13.136,3.177 10.301,0.342 6.801,0.342 C3.303,0.342 0.467,3.177 0.467,6.676 C0.467,10.174 3.303,13.009 6.801,13.011 C8.420,13.011 9.893,12.398 11.014,11.399 L14.523,14.909 L15.547,13.885 ZM1.915,6.676 C1.920,3.978 4.102,1.794 6.801,1.790 C9.500,1.794 11.684,3.978 11.687,6.676 C11.684,9.376 9.500,11.559 6.801,11.563 C4.102,11.559 1.920,9.376 1.915,6.676 Z"/>
</svg>