<svg 
 xmlns="http://www.w3.org/2000/svg"
 xmlns:xlink="http://www.w3.org/1999/xlink"
 width="66px" height="63px">
<path fill-rule="evenodd"  fill="rgb(31, 55, 61)"
 d="M40.714,24.351 C40.133,24.609 39.507,24.784 38.850,24.862 C39.519,24.461 40.035,23.824 40.277,23.064 C39.650,23.437 38.953,23.708 38.215,23.854 C37.623,23.221 36.778,22.828 35.844,22.828 C34.050,22.828 32.596,24.282 32.596,26.076 C32.596,26.330 32.625,26.578 32.680,26.816 C29.980,26.682 27.588,25.388 25.984,23.422 C25.705,23.900 25.544,24.461 25.544,25.056 C25.544,26.182 26.119,27.175 26.990,27.759 C26.458,27.742 25.956,27.595 25.518,27.353 C25.518,27.366 25.518,27.380 25.518,27.394 C25.518,28.967 26.639,30.280 28.124,30.579 C27.851,30.653 27.564,30.691 27.267,30.691 C27.059,30.691 26.855,30.673 26.657,30.634 C27.069,31.925 28.269,32.864 29.689,32.891 C28.578,33.761 27.179,34.281 25.657,34.281 C25.394,34.281 25.137,34.264 24.881,34.235 C26.320,35.156 28.027,35.694 29.861,35.694 C35.836,35.694 39.103,30.745 39.103,26.452 C39.103,26.312 39.101,26.171 39.094,26.031 C39.729,25.574 40.279,25.002 40.714,24.351 Z"/>
</svg>